PathFileType	4	(X/Y/Z)	C:/Users/beibeiliu/ov580/test_trc/User2\sequence.19_training_dense_right.trc
DataRate	CameraRate	NumFrames	NumMarkers	Units	OrigDataRate	OrigDataStartFrame	OrigNumFrames
120	120	20	19	mm	120	313	500
Frame#	Time	ThumbCMC			ThumbMCP			ThumbIP			ThumbTip			IndexMCP			IndexPIP			IndexTip			MiddleMCP			MiddlePIP			MiddleTip			RingMCP			RingPIP			RingTip			PinkyMCP			PinkyPIP			PinkyTip			BackHand1			BackHand2			BackHand3	
		X0	Y0	Z0	X1	Y1	Z1	X2	Y2	Z2	X3	Y3	Z3	X4	Y4	Z4	X5	Y5	Z5	X6	Y6	Z6	X7	Y7	Z7	X8	Y8	Z8	X9	Y9	Z9	X10	Y10	Z10	X11	Y11	Z11	X12	Y12	Z12	X13	Y13	Z13	X14	Y14	Z14	X15	Y15	Z15	X16	Y16	Z16	X17	Y17	Z17	X18	Y18	Z18	
312	2.6	49.7479	17.7983	23.7241	20.9391	18.343	7.17349	-4.93417	13.118	-19.1317	-3.31376	-5.93514	-44.3291	71.3264	21.4647	-63.2701	64.9787	4.02838	-90.3438	43.2405	-20.0726	-85.1798	90.0468	9.22373	-70.7462	74.9814	-9.86803	-99.3076	49.7539	-32.988	-80.4027	105.382	-8.14254	-67.4036	90.2121	-20.9759	-90.146	61.7312	-40.2766	-72.4898	112.06	-25.86	-49.4701	97.6759	-35.1137	-77.2612	71.3068	-55.9467	-68.9287	114.27	-7.37192	-9.54572	116.215	-1.17493	18.6419	88.4843	22.938	4.00069	
313	2.60833	47.607	11.955	21.4741	16.1444	11.6785	8.05888	-6.22528	5.69711	-18.9494	-6.3582	-10.3247	-47.5479	72.4327	20.7073	-57.9883	64.3168	9.33924	-89.6905	46.8218	-19.2275	-87.1825	94.6491	11.6352	-69.2497	81.0815	-5.97899	-98.107	55.2185	-32.1634	-83.3467	109.187	-3.78786	-61.7724	96.807	-15.4666	-90.7919	70.6193	-38.4801	-77.5818	116.894	-20.6989	-49.096	102.541	-28.3197	-78.8483	81.6644	-51.6861	-75.1463	110.462	-3.08209	-10.8805	119.685	-1.91102	24.8602	87.0962	19.762	7.6619	
314	2.61667	42.898	8.02295	27.1973	17.273	3.31409	9.13724	-3.17767	-2.59976	-23.6759	-2.36535	-14.9913	-49.2143	69.9125	25.7195	-58.3352	66.6246	15.8585	-87.731	52.2526	-16.904	-88.6169	91.9918	19.1426	-65.9074	81.132	0.86533	-98.4391	64.9036	-30.0886	-86.0563	108.664	4.24937	-62.1381	97.7848	-5.72069	-89.2493	73.3825	-33.6137	-77.9753	116.435	-13.5846	-45.1446	108.902	-18.8226	-77.8923	85.5816	-41.1589	-77.9146	112.987	-0.724474	-9.29372	113.23	2.28756	24.0403	81.3946	20.2459	10.7496	
315	2.625	44.26	0.802572	27.3451	16.672	-3.6956	8.25883	-2.16468	-9.33959	-22.2403	-3.92663	-18.7658	-51.6106	68.5817	27.137	-53.6261	70.4336	20.5995	-83.806	53.6791	-14.865	-91.2445	89.4203	25.1024	-60.9731	86.5018	9.02234	-96.8109	66.9229	-22.0175	-89.5798	110.035	12.3106	-61.9902	101.52	2.15752	-87.9585	78.2714	-28.8901	-79.2079	121.228	-4.26682	-46.9102	112.066	-10.1484	-77.3704	93.2944	-39.0786	-80.3416	110.955	4.98464	-7.11994	113.762	2.77311	27.5306	80.2736	20.9091	11.6916	
316	2.63333	42.0782	-2.69369	27.4591	18.3144	-7.81656	4.10976	-2.38311	-13.1812	-21.8449	-0.153658	-20.7848	-54.005	64.459	31.861	-53.6363	65.6771	24.2664	-85.0288	59.3492	-8.77991	-92.453	86.714	30.9937	-59.8379	87.8763	20.5773	-93.1952	73.7094	-18.9853	-90.5507	106.731	18.2984	-58.3667	103.521	7.6869	-87.8326	86.2205	-27.101	-80.4728	121.325	2.11499	-45.0698	117.601	0.416931	-74.8681	100.006	-29.7608	-85.1164	110.127	6.73958	-0.525532	113.505	5.69097	32.2963	74.9923	20.2761	13.933	
317	2.64167	41.2725	-5.4133	24.2621	13.9707	-8.22043	3.0569	-3.94784	-13.1112	-28.1233	5.19242	-19.7931	-52.2292	64.3821	34.2075	-49.4351	67.8519	31.6383	-80.3058	61.0861	0.80089	-94.207	88.9139	36.0183	-58.3522	89.7823	23.4729	-91.6196	75.4425	-14.2876	-89.6545	103.682	22.5012	-51.3361	103.683	13.7273	-86.2035	86.6009	-19.255	-80.9868	122.525	5.69798	-40.3282	117.894	7.49191	-73.4022	100.457	-17.6475	-84.519	110.997	10.7451	-3.13368	113.435	7.26678	30.9757	74.5212	18.1395	14.67	
318	2.65	40.5439	-4.81421	23.7161	15.9711	-10.377	6.47241	-1.48227	-13.0482	-27.3871	2.03501	-18.8465	-52.3788	64.3769	35.5183	-46.0599	68.7355	33.7369	-79.1572	62.9002	2.71084	-95.2088	88.0032	38.49	-54.7679	85.8043	31.7572	-88.5049	74.4899	-9.64969	-91.1435	105.474	26.2271	-49.3059	100.548	22.0028	-83.5873	85.4234	-12.223	-82.8386	122.313	9.96339	-38.6002	121.492	13.5428	-72.0003	102.732	-9.66667	-86.8742	105.087	11.9645	0.520711	109.485	7.02673	30.9926	75.9038	17.9406	16.0334	
319	2.65833	39.1783	-7.31065	29.0553	15.7468	-9.61639	5.10417	-4.01663	-11.4266	-24.6127	-4.76136	-16.4792	-52.2746	63.0076	36.2808	-41.6069	66.4427	40.3603	-73.7418	58.2822	9.97363	-95.588	82.7065	40.9161	-49.9537	83.5766	34.7403	-88.327	73.7109	-0.243604	-93.1104	101.607	33.6548	-49.4313	103.915	28.3982	-80.4012	88.7525	-7.54514	-83.1204	120.391	10.8183	-35.933	119.554	19.1928	-68.0716	104.784	-0.0319	-87.6062	104.59	13.7313	1.00757	111.069	7.51257	34.8136	73.7805	18.2505	19.5036	
320	2.66667	37.2713	-3.60288	25.8821	14.6025	-8.528	7.85781	-4.24403	-10.3576	-21.7418	-7.12815	-12.6393	-50.0943	62.8012	40.1499	-40.727	62.8107	45.1812	-73.9386	59.4971	17.2208	-93.7953	82.5721	46.6179	-50.1109	83.2029	41.9088	-84.7773	72.2465	3.14145	-91.1397	105.182	35.5275	-46.2521	103.818	32.1556	-78.1969	88.2819	-1.76199	-83.7935	116.805	14.0424	-33.4122	117.338	24.2316	-64.5866	104.274	3.64579	-89.1188	102.622	14.6017	3.20226	108.441	6.91639	35.3778	70.8571	19.4908	23.6126	
321	2.675	36.5848	-4.82568	30.1562	13.3433	-6.79334	10.0048	-8.85335	-6.82118	-19.5464	-9.39898	-8.49287	-49.7914	59.7245	43.0348	-37.4581	64.6888	46.7442	-72.2135	58.1464	21.8197	-91.0482	85.9258	48.6253	-47.482	85.6356	44.066	-81.7356	74.2371	5.71452	-89.1389	99.3554	37.6318	-42.4166	101.04	37.2167	-75.8269	86.4607	7.74724	-83.1719	116.721	19.6834	-34.4346	117.11	27.8842	-64.3455	101.92	8.90942	-87.3864	102.913	17.5906	5.72083	106.651	11.0326	35.806	73.1481	20.8739	21.8279	
322	2.68333	34.9107	-2.07606	29.5362	14.4921	-4.301	9.39574	-9.20855	-3.84432	-18.2373	-10.2185	-6.01209	-43.3786	60.4686	44.0441	-33.7008	62.3827	51.8426	-68.7833	60.3355	25.0283	-87.4899	81.0773	51.7883	-44.1722	81.4394	48.759	-80.2247	68.4921	9.21693	-86.8943	101.259	41.2005	-41.7045	98.6699	39.151	-73.8517	84.1245	7.48073	-80.4609	119.412	20.8675	-31.7229	114.282	30.8507	-59.4919	102.579	10.9033	-86.4925	106.31	17.6616	5.1653	108.081	11.3159	35.6051	73.3373	20.1045	26.4475	
323	2.69167	35.6068	-1.79405	32.317	12.1869	-1.08022	10.5458	-8.29645	-2.07891	-12.7315	-15.1691	-1.58076	-42.7444	59.1823	49.6422	-32.2027	63.6422	55.0066	-65.5327	55.9593	26.6927	-86.3599	82.5395	52.46	-38.6222	79.1367	51.4397	-78.0573	68.5459	16.8415	-85.3809	100.589	41.4611	-36.5013	94.8529	44.1842	-70.0111	85.3872	12.3142	-79.1943	117.401	22.4959	-29.3917	111.237	34.6775	-59.0439	99.8454	16.6797	-84.6511	100.405	19.8174	8.16079	104.406	12.5894	37.65	69.6552	23.0795	30.2523	
324	2.7	33.9213	1.02159	30.9559	8.10464	2.2883	11.8759	-10.2495	1.57985	-13.8101	-17.8639	2.10422	-41.2313	56.0329	51.9946	-30.9887	59.5684	57.8871	-65.88	54.6798	27.7231	-86.4199	79.8441	55.4842	-38.9874	78.2909	53.4267	-77.0335	68.0645	20.3545	-84.388	99.1285	44.6421	-36.5286	99.1326	46.4045	-68.7477	81.8569	14.8878	-77.7692	112.639	25.5488	-28.3247	112.147	35.6157	-58.892	100.18	20.0474	-79.7518	103.276	17.5808	8.7822	104.694	12.2533	38.0579	67.8569	24.754	25.8978	
325	2.70833	34.2881	-0.415386	34.468	8.2598	0.868883	13.0406	-13.1752	1.37222	-12.5082	-19.1463	2.23077	-41.7062	55.319	52.8143	-32.9675	62.4733	57.2884	-62.8844	56.2422	29.4696	-84.4632	78.8305	55.8972	-40.2471	78.7336	53.1962	-76.3867	69.5219	18.14	-83.3326	96.3447	43.9084	-36.6579	95.9389	47.3363	-66.6479	83.7625	11.5734	-76.231	115.807	24.8974	-28.8751	111.329	35.9048	-59.2741	96.2993	15.0401	-80.0464	100.713	19.8134	7.69002	104.768	12.0402	36.9331	66.4766	25.5973	26.6317	
326	2.71667	32.7357	-0.899522	35.4366	10.0481	-0.57017	11.3009	-10.8199	1.74365	-16.1456	-14.9868	-0.00664017	-40.9273	61.1538	49.7552	-34.8431	64.6158	54.7859	-64.0032	56.1019	28.6875	-85.8612	81.6406	51.6535	-38.811	83.2155	49.2965	-78.2895	69.7121	13.6586	-84.3954	99.0809	40.3363	-36.276	101.301	43.6595	-69.8971	85.6657	10.5608	-77.6448	117.093	23.9449	-28.5479	112.33	32.6448	-61.0814	100.426	15.121	-81.2125	99.1784	18.8054	8.77339	106.204	11.9738	39.9699	71.4894	23.0331	28.9222	
327	2.725	36.9451	-0.199162	29.6124	8.22754	-2.10075	14.2434	-8.81	-2.73492	-13.013	-13.5097	-3.53817	-43.7198	58.6998	46.3654	-34.6523	65.9611	50.9494	-67.5818	58.4354	22.2711	-88.8128	84.9649	50.0443	-43.5023	84.9232	48.4838	-78.5029	73.3693	7.44713	-83.9519	103.18	39.7227	-40.0704	99.2584	41.676	-70.2236	87.1097	7.40346	-78.2934	118.305	20.683	-29.2964	116.389	28.7835	-61.2913	100.767	4.94227	-80.0583	104.431	18.1515	7.61916	102.499	14.5992	39.2351	70.9058	24.6818	24.7462	
328	2.73333	36.2611	-1.60195	30.015	13.5543	-3.96048	9.71117	-8.37399	-5.74857	-14.1851	-17.4727	-8.91927	-43.9412	58.6998	41.9379	-38.3936	66.2029	45.1625	-72.2783	61.1266	15.7406	-90.0697	85.9252	45.8296	-45.3125	84.215	39.3862	-83.5735	76.3063	2.03302	-86.6867	100.157	38.4469	-43.1305	104.441	34.7218	-72.9296	89.3174	-2.3081	-77.7171	115.883	16.3996	-29.1325	114.894	23.6068	-63.6644	104.525	3.7641	-80.2872	102.449	16.7681	7.95892	106.307	12.4412	37.5451	69.4584	22.1888	22.8976	
329	2.74167	37.3237	-2.24587	29.8619	13.9138	-7.16856	9.18212	-10.2305	-8.74069	-17.0307	-11.2339	-13.9262	-44.4289	62.3598	35.8836	-40.2446	68.1047	38.1549	-76.4882	66.5489	4.62022	-91.9873	87.2209	41.6596	-51.2966	88.6193	30.9221	-86.4639	75.6088	-5.32047	-87.7905	105.392	29.6643	-41.8424	108.087	26.0506	-76.1138	93.2535	-4.41579	-80.3067	120.847	12.9561	-29.3673	123.53	18.3703	-63.4764	107.391	-6.33882	-78.5142	100.969	15.81	7.17032	106.176	14.3901	37.2437	67.5363	23.461	23.8942	
330	2.75	37.6781	-1.49044	24.6748	12.2928	-7.41892	7.77418	-4.58453	-13.0335	-18.2158	-11.2811	-19.289	-49.1725	65.1402	31.3028	-44.0416	71.9762	29.8433	-78.2793	68.1261	0.207807	-93.0038	86.4272	37.5583	-53.0097	91.2349	27.0829	-86.7234	82.9778	-11.7507	-88.3627	106.478	28.2937	-46.4532	104.564	20.458	-79.0491	94.1774	-13.9364	-79.0441	123.051	8.17969	-28.789	123.089	12.9237	-62.867	109.464	-12.2988	-79.3189	102.071	13.4028	7.03881	107.524	13.77	35.8317	68.9943	20.8578	22.4515	
331	2.75833	35.2254	-3.18582	30.0384	12.6656	-9.82447	4.29386	-4.4965	-17.0678	-22.9881	-10.632	-25.5409	-47.4653	65.1097	28.8387	-50.5505	71.4483	21.5356	-83.038	73.7915	-7.42262	-93.0037	87.5682	31.6573	-54.9409	94.9803	16.5263	-88.7056	83.2291	-19.5684	-88.0949	107.033	20.6154	-44.9797	109.567	15.1542	-77.3167	99.4856	-18.8348	-79.7155	122.149	6.67039	-31.5814	123.736	6.93754	-64.201	113.444	-18.0721	-78.4922	107.412	12.4859	4.87278	107.417	11.2928	39.0173	72.4204	19.1282	17.2559	
